<?xml version="1.0" encoding="UTF-8" standalone="no"?>
<!DOCTYPE svg PUBLIC "-//W3C//DTD SVG 1.1//EN" "http://www.w3.org/Graphics/SVG/1.1/DTD/svg11.dtd">
<svg width="100%" height="100%" viewBox="0 0 16 16" version="1.1" xmlns="http://www.w3.org/2000/svg" xmlns:xlink="http://www.w3.org/1999/xlink" xml:space="preserve" xmlns:serif="http://www.serif.com/" style="fill-rule:evenodd;clip-rule:evenodd;stroke-linejoin:round;stroke-miterlimit:2;">
    <g transform="matrix(0.420903,0,0,0.420903,0.303266,0.000123664)">
        <path d="M35.84,0.12C35.19,-0.18 34.43,0.1 34.13,0.75C33.82,1.41 25.88,20.58 25.88,20.58C25.62,21.18 25.45,21.12 25.45,20.49C25.45,20.49 25.48,13.81 25.51,8.31C25.54,5.31 24.05,3.63 21.97,3.29C21.01,3.15 20.04,3.37 19.23,3.89C18.39,4.48 17.72,5.27 17.29,6.2C16.66,7.43 12.78,18.73 12.78,18.73C12.58,19.33 12.38,19.3 12.38,18.67C12.38,18.67 12.27,13.79 12.15,12.65C11.98,10.88 11.58,8 9.3,7.86C7.16,7.72 6.19,10.37 5.65,12C5.28,13.08 3.51,18.93 3.51,18.93L3.25,19.53C3.16,19.84 3.02,19.84 2.94,19.53L2.8,18.99C2.65,18.41 2.47,17.84 2.26,17.28C2.18,16.97 2.03,16.68 1.83,16.42C1.54,16.11 1.09,15.99 0.69,16.13C0.31,16.26 0.04,16.61 0,17.01C0,17.35 0.03,17.7 0.09,18.04C0.24,19.07 0.98,23.12 1.43,24C1.88,24.88 2.86,25.34 3.77,24.86C4.63,24.4 5.03,23.35 5.37,22.52C5.8,21.46 8,15.41 8,15.41C8.23,14.81 8.4,14.84 8.37,15.47C8.37,15.47 8.26,21.41 8.26,24.09C8.26,25.09 8.35,26.91 8.63,27.89C8.79,28.54 9.16,29.12 9.69,29.55C10.21,29.94 10.86,30.12 11.52,30.06C11.84,30.02 12.15,29.91 12.43,29.75C12.82,29.51 13.17,29.2 13.46,28.84C14.09,27.98 14.63,27.06 15.09,26.1C16.15,24.02 18.89,17.57 18.89,17.57C19.15,16.97 19.32,17.03 19.32,17.66C19.32,17.66 18.98,28.5 18.98,32.64C18.98,33.67 19.18,34.7 19.55,35.66C19.88,36.58 20.55,37.33 21.43,37.74C22.39,38.16 23.49,38.09 24.4,37.57C25.09,37.15 25.66,36.56 26.06,35.86C26.61,34.9 27.08,33.9 27.46,32.86C28.29,30.72 28.97,28.55 29.66,26.35C30.34,24.15 36.14,3.47 36.51,1.7C36.56,1.5 36.58,1.3 36.57,1.1C36.51,0.68 36.26,0.32 35.89,0.13L35.84,0.12Z" style="fill-rule:nonzero;"/>
    </g>
</svg>
